<svg width="80" height="88" viewBox="0 0 80 88" fill="none" xmlns="http://www.w3.org/2000/svg">
<path d="M79.01 32.6724L40.4252 72.8215H32.6797C32.428 72.8215 32.1818 72.7436 31.9723 72.5979C31.763 72.4523 31.6 72.2453 31.5037 72.0031C31.4077 71.7611 31.3826 71.4947 31.4319 71.2378C31.4812 70.9808 31.6028 70.7447 31.7812 70.5598L42.6855 59.2055C43.543 58.3114 44.0245 57.0998 44.0243 55.8364V22.2001C44.0243 22.0259 44.0574 21.8534 44.1216 21.6925C44.1858 21.5316 44.2798 21.3855 44.3983 21.2625L50.291 15.1311C51.5003 15.1402 52.6571 15.6465 53.5091 16.5396C54.3614 17.4326 54.8396 18.64 54.8396 19.8985V29.4729C54.8398 29.8905 54.761 30.3039 54.6076 30.6897C54.4544 31.0755 54.2295 31.4261 53.9459 31.7217L53.1085 32.593L53.264 32.8049L67.5611 17.9359V0.00265118H67.3065V6.5843C67.3055 6.75456 67.2519 6.92001 67.1539 7.05623C67.0556 7.19244 66.9178 7.29224 66.7611 7.34089C66.6042 7.38957 66.4366 7.3845 66.2827 7.32648C66.1288 7.26846 65.9971 7.16053 65.9066 7.01863C64.9823 5.53827 63.7174 4.32171 62.2264 3.47941C60.7355 2.63711 59.0659 2.19582 57.3695 2.19565H45.4065L34.945 13.1209L30.8724 17.3585C30.6944 17.5433 30.4677 17.669 30.2208 17.7198C29.9741 17.7706 29.7183 17.7441 29.4861 17.6438C29.2538 17.5435 29.0554 17.3738 28.9156 17.1561C28.7759 16.9385 28.7013 16.6827 28.7013 16.421V0H28.4468V7.59602C28.4471 7.77703 28.3879 7.95271 28.279 8.09398C28.1703 8.23526 28.0184 8.33365 27.8486 8.37286C27.6787 8.4121 27.5013 8.38982 27.3454 8.30971C27.1892 8.22963 27.0643 8.09651 26.9908 7.9324C24.9545 3.38484 21.8365 2.19035 21.8365 2.19035L7.23894 17.2049L7.41718 17.393L8.06108 16.7308C10.7439 13.979 15.3103 15.5787 15.8168 19.4641C15.9257 20.3184 15.9784 21.1794 15.9746 22.0411V71.1875L0 87.8097L0.180709 87.9977L0.806854 87.3461C1.66359 86.4522 2.82618 85.9483 4.03949 85.9451H50.2248L75.393 59.5974C76.2516 58.7038 76.734 57.4922 76.7346 56.2285V37.3523C76.7348 36.0889 77.2173 34.877 78.0759 33.9834L79.1576 32.8578L79.01 32.6724ZM28.7294 33.8511V19.97L33.3821 15.1284H46.8547C47.1067 15.128 47.3531 15.2054 47.5629 15.3509C47.7727 15.4964 47.9362 15.7034 48.0325 15.9457C48.129 16.1879 48.1543 16.4545 48.105 16.7117C48.0557 16.9689 47.9342 17.2051 47.7557 17.3903L30.8979 34.9317C30.72 35.1174 30.493 35.2439 30.2458 35.2952C29.9986 35.3465 29.7424 35.3202 29.5096 35.2197C29.2768 35.1192 29.0776 34.9491 28.9379 34.7311C28.7981 34.5128 28.7238 34.2564 28.7243 33.9939L28.7294 33.8511ZM28.7294 37.559L31.3051 34.876V55.2539L28.7243 57.9395L28.7294 37.559ZM29.2384 72.8136H17.8632C17.6112 72.8141 17.3647 72.7368 17.155 72.5911C16.9452 72.4457 16.7818 72.2387 16.6853 71.9965C16.5888 71.7543 16.5635 71.4876 16.6128 71.2304C16.6621 70.9732 16.7837 70.737 16.9622 70.5519L29.1315 57.8919C29.3094 57.7062 29.5361 57.5797 29.783 57.5285C30.03 57.4772 30.286 57.5029 30.5188 57.6031C30.7515 57.7033 30.9505 57.873 31.0905 58.0907C31.2302 58.3085 31.3051 58.5646 31.3051 58.8268V70.6471L29.2384 72.8136ZM64.0383 70.7347C64.0381 70.9453 63.9575 71.147 63.8144 71.2962L62.5823 72.5806C62.4392 72.7297 62.2451 72.8133 62.0427 72.8136H43.8486C43.5966 72.8141 43.3502 72.7368 43.1404 72.5911C42.9306 72.4457 42.7671 72.2387 42.6706 71.9965C42.574 71.7543 42.549 71.4876 42.5983 71.2304C42.6476 70.9732 42.7691 70.737 42.9476 70.5519L61.867 50.8678C62.0452 50.6831 62.2719 50.5574 62.5189 50.5067C62.7655 50.4559 63.0211 50.4822 63.2533 50.5827C63.4856 50.6829 63.6842 50.8525 63.824 51.0703C63.9638 51.288 64.0381 51.5436 64.0383 51.8053V70.7347Z" fill="#FF98A2"/>
</svg>
