<svg width="10" height="19" viewBox="0 0 10 19" fill="none" xmlns="http://www.w3.org/2000/svg">
<path d="M6.38184 0.385742C7.19227 0.274662 7.98805 0.34229 8.85449 0.37793C9.03979 0.385348 9.22788 0.406595 9.4248 0.431641V2.80859C8.97946 2.81236 8.52504 2.81344 8.07422 2.82324L7.51758 2.8418C7.15961 2.85609 6.84471 2.96157 6.59375 3.16797C6.34339 3.37392 6.18263 3.65902 6.09375 3.9873L6.0918 3.99414C6.05287 4.15011 6.02498 4.32615 6.02441 4.49707C6.01276 5.25508 6.0127 6.0129 6.0127 6.76758C6.0127 6.81651 6.02031 6.86155 6.02539 6.88867C6.0298 6.91218 6.0385 6.95323 6.04199 6.9707L6.09375 7.23242H9.27637C9.16172 8.14171 9.04553 9.02094 8.93066 9.92773H6.02441V18.5254H3.20312V9.91602H0.325195V7.20898H3.20312V6.66309C3.20312 5.94768 3.19164 5.24969 3.20312 4.55664C3.21466 4.10654 3.23786 3.67817 3.32422 3.26758L3.3252 3.2627C3.63481 1.67136 4.77561 0.611071 6.38184 0.385742Z" fill="white" stroke="white" stroke-width="0.65"/>
</svg>
