<svg width="21" height="21" viewBox="0 0 21 21" fill="none" xmlns="http://www.w3.org/2000/svg">
<path d="M5.87988 0.0556641H15.1201C16.6642 0.0574604 18.1445 0.671867 19.2363 1.76367C20.3281 2.85548 20.9425 4.33584 20.9443 5.87988V15.1201C20.9425 16.6642 20.3281 18.1445 19.2363 19.2363C18.1445 20.3281 16.6642 20.9425 15.1201 20.9443H5.87988C4.33584 20.9425 2.85548 20.3281 1.76367 19.2363C0.671867 18.1445 0.0574604 16.6642 0.0556641 15.1201V5.87988C0.0574603 4.33584 0.671867 2.85548 1.76367 1.76367C2.85548 0.671867 4.33584 0.0574603 5.87988 0.0556641ZM12.4502 5.79199C11.519 5.40629 10.4944 5.30533 9.50586 5.50195C8.51734 5.69858 7.60917 6.1838 6.89648 6.89648C6.1838 7.60917 5.69858 8.51734 5.50195 9.50586C5.30533 10.4944 5.40629 11.519 5.79199 12.4502C6.1777 13.3813 6.83093 14.1774 7.66895 14.7373C8.50694 15.2972 9.49217 15.5957 10.5 15.5957C11.8511 15.5942 13.1462 15.0569 14.1016 14.1016C15.0569 13.1462 15.5942 11.8511 15.5957 10.5C15.5957 9.49217 15.2972 8.50694 14.7373 7.66895C14.1774 6.83093 13.3813 6.1777 12.4502 5.79199ZM10.5 7.19629C11.376 7.19731 12.2156 7.54564 12.835 8.16504C13.4544 8.78444 13.8027 9.62403 13.8037 10.5C13.8037 11.1535 13.6101 11.7926 13.2471 12.3359C12.8841 12.8791 12.3682 13.3027 11.7646 13.5527C11.1609 13.8028 10.4964 13.8677 9.85547 13.7402C9.21456 13.6127 8.62614 13.298 8.16406 12.8359C7.70199 12.3739 7.38725 11.7854 7.25977 11.1445C7.13228 10.5036 7.19719 9.83908 7.44727 9.23535C7.6973 8.63179 8.1209 8.11594 8.66406 7.75293C9.1395 7.43525 9.68836 7.24712 10.2559 7.20508L10.5 7.19629ZM15.7031 3.74902C15.4479 3.79981 15.2133 3.92535 15.0293 4.10938C14.8453 4.29341 14.7197 4.52794 14.6689 4.7832C14.6182 5.03848 14.6445 5.30348 14.7441 5.54395C14.8437 5.78413 15.0124 5.98926 15.2285 6.13379C15.4449 6.27838 15.6997 6.35644 15.96 6.35645C16.309 6.35645 16.6438 6.21747 16.8906 5.9707C17.1374 5.72392 17.2764 5.38905 17.2764 5.04004C17.2764 4.77977 17.1993 4.525 17.0547 4.30859C16.9101 4.09225 16.7042 3.92384 16.4639 3.82422C16.2234 3.72462 15.9584 3.69825 15.7031 3.74902Z" fill="white" stroke="white" stroke-width="0.111973"/>
</svg>
