<svg width="17" height="17" viewBox="0 0 17 17" fill="none" xmlns="http://www.w3.org/2000/svg">
<path d="M4.64453 0.332031C5.30734 1.29663 5.96769 2.25864 6.62793 3.2207L8.62793 6.13379L8.63574 6.14453C8.64636 6.15869 8.65659 6.17418 8.67773 6.20508C8.6964 6.23236 8.72134 6.26761 8.75098 6.30469L9.00098 6.61719L9.26172 6.31445C9.53339 5.99932 9.80616 5.68366 10.0674 5.37891L10.0664 5.37793C11.5007 3.71546 12.9369 2.05244 14.3613 0.37793L14.3652 0.373047C14.3867 0.346831 14.3985 0.34209 14.4014 0.34082C14.4058 0.338875 14.422 0.332131 14.4658 0.332031C14.6279 0.336411 14.7919 0.335583 14.958 0.334961C13.0974 2.50306 11.2419 4.65276 9.39941 6.80566L9.24414 6.9873L9.36719 7.19238C9.40583 7.25678 9.44481 7.30852 9.47559 7.34961V7.35059C11.5103 10.314 13.5467 13.2887 15.5918 16.2539H11.5674C10.1439 14.2046 8.73002 12.1441 7.31641 10.083C7.29438 10.0506 7.27083 10.0222 7.25781 10.0068C7.24095 9.98691 7.23091 9.97519 7.22168 9.96289L6.99219 9.65723L6.72168 9.92773C6.66017 9.98925 6.61092 10.0497 6.57422 10.0977C5.4223 11.4343 4.26966 12.7719 3.12793 14.1094C2.80736 14.4843 2.48353 14.8625 2.16016 15.2402C1.86982 15.5794 1.57946 15.9186 1.29102 16.2559C1.10207 16.2593 0.914651 16.2616 0.728516 16.2627L1.41504 15.4551C2.25748 14.4768 3.10014 13.4955 3.94238 12.5146C4.78466 11.5338 5.62667 10.5531 6.46875 9.5752L6.47656 9.56641L6.4834 9.55762C6.51689 9.51297 6.5361 9.48735 6.56055 9.46289L6.75586 9.26758L6.59961 9.04004C4.60695 6.14349 2.62417 3.24745 0.623047 0.332031H4.64453ZM1.66895 1.26074C1.68565 1.28582 1.69884 1.30659 1.71094 1.32715C1.72076 1.34385 1.7383 1.375 1.75586 1.40137L1.76074 1.4082C5.07549 6.14667 8.37933 10.8851 11.6943 15.6348V15.6338C11.7435 15.7088 11.8112 15.7817 11.9082 15.832C12.008 15.8837 12.1093 15.8965 12.1953 15.8965H14.0869C14.1314 15.8964 14.1754 15.8914 14.1914 15.8896C14.2124 15.8873 14.2247 15.8858 14.2383 15.8857H14.8838L14.5088 15.3604C14.4852 15.3273 14.4662 15.2989 14.4473 15.2705L14.3848 15.1807C11.9629 11.7054 9.53084 8.22952 7.10938 4.76562H7.1084C6.67392 4.14649 6.23943 3.52457 5.80469 2.90234C5.36995 2.28013 4.935 1.65698 4.5 1.03711L4.49414 1.0293L4.4873 1.02051C4.45603 0.981434 4.41014 0.931071 4.35645 0.886719C4.32957 0.864523 4.294 0.837687 4.25098 0.81543C4.21224 0.795422 4.14624 0.76758 4.06348 0.765625H4.06445C3.36281 0.743701 2.67262 0.744141 1.94531 0.744141H1.3252L1.66895 1.26074Z" fill="white" stroke="white" stroke-width="0.664388"/>
</svg>
